#!OML:ASF \\Waltz\H\Terrain\Patient Classification 1\Animal2\Wednesday\Animal2.ASF
:FULLY-SPECIFIED
:DEGREES
2093
root 12.5104 16.2232 -16.4835 16.3984 -2.04434 -0.381367
lowerback 21.6019 -2.85231 0.777636
upperback 6.79885 -3.43989 1.28935
thorax -4.59868 -1.68476 1.79635
lowerneck 8.7169 4.96029 17.3448
upperneck -4.32085 7.54228 -20.4504
head -1.20712 4.23679 -9.48803
rclavicle 6.7388e-014 -4.01545e-014
rhumerus -23.8498 2.70487 -79.213
rradius 126.867
rwrist 16.1917
rhand -35.2726 19.7173
rfingers 7.12502
rthumb -8.40789 -10.0954
lclavicle 6.7388e-014 -4.01545e-014
lhumerus -33.9691 3.80936 70.0525
lradius 127.087
lwrist 2.35297
lhand -51.3549 8.28672
lfingers 7.12502
lthumb -23.889 36.8209
rfemur -51.8779 -8.73456 16.19
rtibia 63.2733
rfoot -25.6416 1.29265
rtoes 12.8243
lfemur -49.3127 13.6347 -11.7334
ltibia 58.4366
lfoot -22.2307 -4.12648
ltoes -33.5539
2094
root 12.5314 16.2458 -16.4938 16.3706 -2.12877 -0.394773
lowerback 21.3565 -2.87891 0.850487
upperback 6.79911 -3.47023 1.21232
thorax -4.48193 -1.70022 1.66706
lowerneck 8.83108 4.83883 17.3599
upperneck -3.81599 7.44376 -20.5409
head -1.10018 4.19047 -9.51577
rclavicle -6.55989e-015 0
rhumerus -23.9166 2.51933 -79.3509
rradius 126.95
rwrist 16.5285
rhand -34.1055 18.5182
rfingers 7.12502
rthumb -7.28138 -11.3365
lclavicle -6.55989e-015 0
lhumerus -34.071 4.1801 69.7251
lradius 127.262
lwrist 2.93413
lhand -51.5531 9.21412
lfingers 7.12502
lthumb -24.0791 37.7233
rfemur -51.7274 -9.12886 16.2671
rtibia 62.9307
rfoot -25.3997 1.58272
rtoes 12.2572
lfemur -49.1053 13.7239 -11.8648
ltibia 58.1232
lfoot -22.3755 -3.74923
ltoes -34.6218
2095
root 12.5511 16.2754 -16.5034 16.1625 -2.32418 -0.352247
lowerback 21.2123 -2.89631 0.875878
upperback 6.95553 -3.50287 1.0574
thorax -4.25059 -1.71722 1.48181
lowerneck 8.74903 4.85833 17.3505
upperneck -3.49948 7.48717 -20.6886
head -0.98294 4.21001 -9.55261
rclavicle 1.59028e-015 9.93923e-016
rhumerus -23.7863 2.44506 -79.638
rradius 127.041
rwrist 16.7959
rhand -33.4898 17.7196
rfingers 7.12502
rthumb -6.68706 -12.1549
lclavicle 1.59028e-015 9.93923e-016
lhumerus -34.024 4.5898 69.3451
lradius 127.479
lwrist 3.4692
lhand -51.5261 8.31495
lfingers 7.12502
lthumb -24.0532 36.8276
rfemur -51.323 -9.43986 16.2347
rtibia 62.4817
rfoot -25.1846 1.89702
rtoes 11.6021
lfemur -48.6272 13.7812 -11.9887
ltibia 57.7644
lfoot -22.3853 -3.6282
ltoes -34.3235
2096
root 12.566 16.3058 -16.5126 16.0036 -2.48282 -0.327798
lowerback 21.0495 -2.80244 0.954807
upperback 7.04241 -3.38157 0.888022
thorax -4.09117 -1.65768 1.21592
lowerneck 8.41755 4.69371 17.5827
upperneck -2.87228 7.31052 -20.7563
head -0.774067 4.09866 -9.59153
rclavicle 2.46493e-014 -1.63003e-014
rhumerus -24.0414 2.40588 -79.9358
rradius 127.205
rwrist 16.0658
rhand -34.6354 18.6616
rfingers 7.12502
rthumb -7.7929 -11.1748
lclavicle 2.46493e-014 -1.63003e-014
lhumerus -34.0196 4.61345 69.1269
lradius 127.828
lwrist 3.96182
lhand -51.1148 8.03892
lfingers 7.12502
lthumb -23.6587 36.6031
rfemur -50.9893 -9.64897 16.2191
rtibia 62.0837
rfoot -24.9649 2.1346
rtoes 11.2507
lfemur -48.2288 13.7843 -12.0573
ltibia 57.4881
lfoot -22.367 -3.66456
ltoes -33.4255
2097
root 12.5781 16.3373 -16.5207 15.9811 -2.55557 -0.471345
lowerback 20.8313 -2.75036 1.17708
upperback 6.98588 -3.28039 0.809224
thorax -4.05883 -1.60696 0.973447
lowerneck 8.29047 4.56102 17.5238
upperneck -2.2453 7.17856 -20.5941
head -0.61198 4.0156 -9.5094
rclavicle -2.46493e-014 2.72335e-014
rhumerus -24.4759 2.35542 -80.0474
rradius 127.429
rwrist 15.2699
rhand -35.2041 19.4554
rfingers 7.12502
rthumb -8.34175 -10.3599
lclavicle -2.46493e-014 2.72335e-014
lhumerus -34.2011 4.70401 68.8442
lradius 128.138
lwrist 4.37148
lhand -51.2264 9.50676
lfingers 7.12502
lthumb -23.7657 38.0571
rfemur -50.7561 -9.7107 16.3893
rtibia 61.6442
rfoot -24.7415 2.35006
rtoes 11.8104
lfemur -48.0138 13.8034 -11.958
ltibia 57.1926
lfoot -22.325 -3.52227
ltoes -33.3822
